<?xml version="1.0" encoding="UTF-8" standalone="no"?>
<!-- Created with Inkscape (http://www.inkscape.org/) -->

<svg
   width="142.23506mm"
   height="43.053898mm"
   viewBox="0 0 142.23506 43.053897"
   version="1.1"
   id="svg2033"
   inkscape:version="1.2.1 (8a69933317, 2022-10-28, custom)"
   sodipodi:docname="Fraichup.svg"
   inkscape:export-filename="../c5711225/Fraichup.png"
   inkscape:export-xdpi="96"
   inkscape:export-ydpi="96"
   xmlns:inkscape="http://www.inkscape.org/namespaces/inkscape"
   xmlns:sodipodi="http://sodipodi.sourceforge.net/DTD/sodipodi-0.dtd"
   xmlns="http://www.w3.org/2000/svg"
   xmlns:svg="http://www.w3.org/2000/svg">
  <sodipodi:namedview
     id="namedview2035"
     pagecolor="#ffffff"
     bordercolor="#666666"
     borderopacity="1.0"
     inkscape:showpageshadow="2"
     inkscape:pageopacity="0.0"
     inkscape:pagecheckerboard="0"
     inkscape:deskcolor="#d1d1d1"
     inkscape:document-units="mm"
     showgrid="false"
     inkscape:zoom="0.70910507"
     inkscape:cx="327.17295"
     inkscape:cy="89.549494"
     inkscape:window-width="1848"
     inkscape:window-height="1009"
     inkscape:window-x="72"
     inkscape:window-y="34"
     inkscape:window-maximized="1"
     inkscape:current-layer="g1222" />
  <defs
     id="defs2030">
    <rect
       x="211.30116"
       y="1465.7438"
       width="703.74133"
       height="201.03448"
       id="rect2161" />
    <rect
       x="106.09882"
       y="1035.6166"
       width="761.95746"
       height="262.61169"
       id="rect1918" />
    <rect
       x="172.47372"
       y="826.48267"
       width="801.09814"
       height="595.44824"
       id="rect567" />
    <rect
       x="99.743645"
       y="491.72064"
       width="731.61633"
       height="456.4949"
       id="rect324" />
    <rect
       x="156.65479"
       y="605.54578"
       width="350.04788"
       height="182.06656"
       id="rect2016" />
    <rect
       x="164.35156"
       y="575.58472"
       width="575.18768"
       height="288.51053"
       id="rect2010" />
    <rect
       x="117.10927"
       y="558.17688"
       width="585.57666"
       height="355.65988"
       id="rect1082" />
    <rect
       x="142.0677"
       y="572.151"
       width="602.89832"
       height="283.13538"
       id="rect3845" />
    <rect
       x="172.47372"
       y="826.48267"
       width="801.09814"
       height="595.44824"
       id="rect2155" />
  </defs>
  <g
     inkscape:label="Layer 1"
     inkscape:groupmode="layer"
     id="layer1"
     transform="translate(-112.28432,-357.05061)">
    <text
       xml:space="preserve"
       transform="scale(0.26458333)"
       id="text3843"
       style="font-size:121.159px;line-height:1;font-family:sans-serif;-inkscape-font-specification:'sans-serif, Normal';letter-spacing:0px;white-space:pre;shape-inside:url(#rect3845);display:inline" />
    <g
       id="g1222"
       transform="translate(79.947174,152.80733)"
       inkscape:export-filename="../c5711225/Fraichup.png"
       inkscape:export-xdpi="96"
       inkscape:export-ydpi="96">
      <g
         id="g2149"
         transform="matrix(0.85090651,0,0,0.85090651,99.052435,394.63826)"
         style="display:inline">
        <path
           style="display:inline;fill:#ffdb4d;fill-opacity:1;fill-rule:evenodd;stroke:none;stroke-width:0.559272;stroke-linecap:butt;stroke-linejoin:miter;stroke-miterlimit:4;stroke-dasharray:none;stroke-opacity:1"
           d="m 37.237338,-218.265 1.528049,9.27968 h 22.376402 l 1.065547,-11.27957 h -2.131094 l -0.348513,3.28333 -2.364235,0.0714 0.363559,-6.84501 -3.09168,0.0714 -0.18178,3.99292 -2.303601,-0.35648 0.06059,1.71125 -2.546096,-0.0712 0.06059,-2.28167 H 47.84579 l -0.121187,-2.70949 -3.212907,0.14262 -0.06059,2.9947 H 42.51123 l 0.06059,2.92339 h -2.97045 l -0.242373,-1.14084 z"
           id="path2117"
           inkscape:export-filename="../9bb999bc/favicon.png"
           inkscape:export-xdpi="300"
           inkscape:export-ydpi="300"
           sodipodi:nodetypes="ccccccccccccccccccccccc" />
        <path
           style="display:inline;fill:#ffcc00;fill-rule:evenodd;stroke:none;stroke-width:0.231121px;stroke-linecap:butt;stroke-linejoin:miter;stroke-opacity:1"
           d="m 40.89648,-208.98532 -1.294866,-8.35275 -0.242373,-1.14083 -2.121821,0.21391 1.528048,9.27969 z"
           id="path2119"
           inkscape:export-filename="fraichup A modifié.png"
           inkscape:export-xdpi="96"
           inkscape:export-ydpi="96"
           sodipodi:nodetypes="cccccc" />
        <path
           style="display:inline;fill:#ffcc00;fill-rule:evenodd;stroke:none;stroke-width:0.231121px;stroke-linecap:butt;stroke-linejoin:miter;stroke-opacity:1"
           d="m 42.511433,-220.26147 h 1.939879 l 0.707356,11.27615 h -2.131094 z"
           id="path2121"
           inkscape:export-filename="fraichup A modifié.png"
           inkscape:export-xdpi="96"
           inkscape:export-ydpi="96"
           sodipodi:nodetypes="ccccc" />
        <path
           style="display:inline;fill:#ffcc00;fill-rule:evenodd;stroke:none;stroke-width:0.231121px;stroke-linecap:butt;stroke-linejoin:miter;stroke-opacity:1"
           d="m 49.420814,-208.98532 h -2.131093 l 0.5564,-11.70396 h 1.879246 l -0.06059,2.28168 z"
           id="path2123"
           inkscape:export-filename="fraichup A modifié.png"
           inkscape:export-xdpi="96"
           inkscape:export-ydpi="96"
           sodipodi:nodetypes="cccccc" />
        <path
           style="display:inline;fill:#ffd42a;fill-rule:evenodd;stroke:none;stroke-width:0.231121px;stroke-linecap:butt;stroke-linejoin:miter;stroke-opacity:1"
           d="m 52.150155,-220.04755 2.303601,0.35653 0.294833,10.70572 h -1.065547 -1.065547 z"
           id="path2125"
           inkscape:export-filename="fraichup A modifié.png"
           inkscape:export-xdpi="96"
           inkscape:export-ydpi="96"
           sodipodi:nodetypes="cccccc" />
        <path
           style="display:inline;fill:#ffcc00;fill-rule:evenodd;stroke:none;stroke-width:0.231121px;stroke-linecap:butt;stroke-linejoin:miter;stroke-opacity:1"
           d="m 56.879601,-208.98532 h 2.131094 l 0.717115,-7.99624 -2.364235,0.0714 z"
           id="path2127"
           inkscape:export-filename="fraichup A modifié.png"
           inkscape:export-xdpi="96"
           inkscape:export-ydpi="96"
           sodipodi:nodetypes="ccccc" />
        <path
           style="display:inline;fill:none;fill-rule:evenodd;stroke:none;stroke-width:0.559272;stroke-linecap:butt;stroke-linejoin:miter;stroke-miterlimit:4;stroke-dasharray:none;stroke-opacity:1"
           d="m 37.237338,-218.265 2.121741,-0.21391 0.242373,1.14084 h 2.970452 l -0.06059,-2.9234 h 1.939879 l 0.06059,-2.99469 3.212907,-0.14262 0.121186,2.70948 h 1.879327 l -0.06059,2.28169 2.546096,0.0712 -0.06059,-1.71126 2.303601,0.35653 0.18178,-3.99292 3.091721,-0.0714 -0.36356,6.84501 2.364236,-0.0714 0.348513,-3.28333 h 2.131093 l -1.065506,11.27957 -22.376443,1e-5 z"
           id="path2129"
           inkscape:export-filename="fraichup A modifié.png"
           inkscape:export-xdpi="96"
           inkscape:export-ydpi="96" />
        <path
           style="display:inline;fill:none;fill-rule:evenodd;stroke:none;stroke-width:0.559272;stroke-linecap:butt;stroke-linejoin:miter;stroke-miterlimit:4;stroke-dasharray:none;stroke-opacity:1"
           d="m 39.601574,-217.33807 1.294906,8.35275"
           id="path2131"
           inkscape:export-filename="fraichup A modifié.png"
           inkscape:export-xdpi="96"
           inkscape:export-ydpi="96" />
        <path
           style="display:inline;fill:#ffffff;fill-rule:evenodd;stroke:none;stroke-width:0.559272;stroke-linecap:butt;stroke-linejoin:miter;stroke-miterlimit:4;stroke-dasharray:none;stroke-opacity:1"
           d="m 42.572026,-217.33807 0.455548,8.35275"
           id="path2133"
           inkscape:export-filename="fraichup A modifié.png"
           inkscape:export-xdpi="96"
           inkscape:export-ydpi="96"
           sodipodi:nodetypes="cc" />
        <path
           style="display:inline;fill:none;fill-rule:evenodd;stroke:none;stroke-width:0.559272;stroke-linecap:butt;stroke-linejoin:miter;stroke-miterlimit:4;stroke-dasharray:none;stroke-opacity:1"
           d="m 44.451272,-220.26147 0.707396,11.27615"
           id="path2135"
           inkscape:export-filename="fraichup A modifié.png"
           inkscape:export-xdpi="96"
           inkscape:export-ydpi="96"
           sodipodi:nodetypes="cc" />
        <path
           style="display:inline;fill:#782121;fill-rule:evenodd;stroke:none;stroke-width:0.559272;stroke-linecap:butt;stroke-linejoin:miter;stroke-miterlimit:4;stroke-dasharray:none;stroke-opacity:1"
           d="m 47.846121,-220.68928 -0.5564,11.70396"
           id="path2137"
           inkscape:export-filename="fraichup A modifié.png"
           inkscape:export-xdpi="96"
           inkscape:export-ydpi="96" />
        <path
           style="display:inline;fill:#ffffff;fill-rule:evenodd;stroke:none;stroke-width:0.559272;stroke-linecap:butt;stroke-linejoin:miter;stroke-miterlimit:4;stroke-dasharray:none;stroke-opacity:1"
           d="m 49.664692,-218.4076 -0.244,9.42228"
           id="path2139"
           inkscape:export-filename="fraichup A modifié.png"
           inkscape:export-xdpi="96"
           inkscape:export-ydpi="96" />
        <path
           style="display:inline;fill:#ffffff;fill-rule:evenodd;stroke:none;stroke-width:0.559272;stroke-linecap:butt;stroke-linejoin:miter;stroke-miterlimit:4;stroke-dasharray:none;stroke-opacity:1"
           d="m 52.210789,-218.3363 0.406666,9.35098"
           id="path2141"
           inkscape:export-filename="fraichup A modifié.png"
           inkscape:export-xdpi="96"
           inkscape:export-ydpi="96" />
        <path
           style="display:inline;fill:#ffffff;fill-rule:evenodd;stroke:none;stroke-width:0.559272;stroke-linecap:butt;stroke-linejoin:miter;stroke-miterlimit:4;stroke-dasharray:none;stroke-opacity:1"
           d="m 54.453756,-219.69104 0.294833,10.70572"
           id="path2143"
           inkscape:export-filename="fraichup A modifié.png"
           inkscape:export-xdpi="96"
           inkscape:export-ydpi="96"
           sodipodi:nodetypes="cc" />
        <path
           style="display:inline;fill:#ffffff;fill-rule:evenodd;stroke:none;stroke-width:0.559272;stroke-linecap:butt;stroke-linejoin:miter;stroke-miterlimit:4;stroke-dasharray:none;stroke-opacity:1"
           d="m 57.363575,-216.91026 -0.483974,7.92494"
           id="path2145"
           inkscape:export-filename="fraichup A modifié.png"
           inkscape:export-xdpi="96"
           inkscape:export-ydpi="96" />
        <path
           style="display:inline;fill:#ffffff;fill-rule:evenodd;stroke:none;stroke-width:0.559272;stroke-linecap:butt;stroke-linejoin:miter;stroke-miterlimit:4;stroke-dasharray:none;stroke-opacity:1"
           d="m 59.72781,-216.98156 -0.717115,7.99624"
           id="path2147"
           inkscape:export-filename="../9bb999bc/favicon.png"
           inkscape:export-xdpi="96"
           inkscape:export-ydpi="96"
           sodipodi:nodetypes="cc" />
      </g>
    </g>
    <path
       d="m 115.16941,382.05662 h 11.57246 v 2.75687 h -11.57246 z m 0.32057,11.8289 h -3.20566 v -22.43966 h 15.83598 v 2.78893 h -12.63032 z"
       id="path2199"
       style="font-weight:500;font-size:121.159px;line-height:1;font-family:Montserrat;-inkscape-font-specification:'Montserrat, Medium';letter-spacing:0px;white-space:pre;fill:#333333;stroke-width:0.264583" />
    <path
       d="M 131.87087,393.88552 V 376.8955 h 2.94921 v 4.61615 l -0.28851,-1.15404 q 0.70525,-1.76311 2.37219,-2.69276 1.66695,-0.92964 4.10326,-0.92964 v 2.98127 q -0.19235,-0.0321 -0.38468,-0.0321 -0.16029,0 -0.32057,0 -2.46836,0 -3.91091,1.47461 -1.44255,1.47461 -1.44255,4.26353 v 8.46296 z"
       id="path2201"
       style="font-weight:500;font-size:121.159px;line-height:1;font-family:Montserrat;-inkscape-font-specification:'Montserrat, Medium';letter-spacing:0px;white-space:pre;fill:#333333;stroke-width:0.264583" />
    <path
       d="m 154.08608,393.88552 v -3.59034 l -0.16029,-0.67319 v -6.12283 q 0,-1.95545 -1.15404,-3.01332 -1.12198,-1.08993 -3.398,-1.08993 -1.50666,0 -2.94921,0.51291 -1.44255,0.48085 -2.43631,1.31432 l -1.28226,-2.30808 q 1.31432,-1.05786 3.14155,-1.60283 1.85928,-0.57702 3.87885,-0.57702 3.49418,0 5.38552,1.699 1.89134,1.69901 1.89134,5.19318 v 10.25813 z m -5.57786,0.19234 q -1.89134,0 -3.33389,-0.64113 -1.4105,-0.64114 -2.17985,-1.76312 -0.76936,-1.15404 -0.76936,-2.59659 0,-1.37843 0.64113,-2.50042 0.67319,-1.12198 2.14779,-1.79517 1.50667,-0.67319 4.03914,-0.67319 h 5.38552 v 2.21191 h -5.25729 q -2.30808,0 -3.1095,0.76936 -0.80141,0.76936 -0.80141,1.85929 0,1.2502 0.99375,2.01957 0.99376,0.7373 2.75688,0.7373 1.73105,0 3.01332,-0.76936 1.31432,-0.76936 1.89134,-2.24397 l 0.60908,2.11574 q -0.60908,1.50667 -2.1478,2.40425 -1.53872,0.86553 -3.87885,0.86553 z"
       id="path2203"
       style="font-weight:500;font-size:121.159px;line-height:1;font-family:Montserrat;-inkscape-font-specification:'Montserrat, Medium';letter-spacing:0px;white-space:pre;fill:#333333;stroke-width:0.264583" />
    <path
       d="M 162.7093,393.88552 V 376.8955 h 3.07744 v 16.99002 z m 1.53872,-20.2598 q -0.89758,0 -1.50666,-0.57702 -0.57702,-0.57702 -0.57702,-1.4105 0,-0.86553 0.57702,-1.44254 0.60908,-0.57702 1.50666,-0.57702 0.89759,0 1.47461,0.57702 0.60908,0.54496 0.60908,1.37843 0,0.86553 -0.57702,1.47461 -0.57702,0.57702 -1.50667,0.57702 z"
       id="path2205"
       style="font-weight:500;font-size:121.159px;line-height:1;font-family:Montserrat;-inkscape-font-specification:'Montserrat, Medium';letter-spacing:0px;white-space:pre;fill:#333333;stroke-width:0.264583" />
    <path
       d="m 179.05817,394.07786 q -2.59659,0 -4.64821,-1.12198 -2.01957,-1.12199 -3.17361,-3.07744 -1.15404,-1.95546 -1.15404,-4.48793 0,-2.53248 1.15404,-4.48793 1.15404,-1.95546 3.17361,-3.04538 2.05162,-1.12199 4.64821,-1.12199 2.30808,0 4.10325,0.92964 1.82723,0.89759 2.82099,2.69276 l -2.34014,1.50667 q -0.83347,-1.25021 -2.05162,-1.82723 -1.1861,-0.60908 -2.56454,-0.60908 -1.66694,0 -2.98127,0.7373 -1.31432,0.73731 -2.08368,2.08369 -0.76936,1.31432 -0.76936,3.14155 0,1.82723 0.76936,3.17361 0.76936,1.34638 2.08368,2.08368 1.31433,0.7373 2.98127,0.7373 1.37844,0 2.56454,-0.57702 1.21815,-0.60908 2.05162,-1.85928 l 2.34014,1.4746 q -0.99376,1.76312 -2.82099,2.72482 -1.79517,0.92964 -4.10325,0.92964 z"
       id="path2207"
       style="font-weight:500;font-size:121.159px;line-height:1;font-family:Montserrat;-inkscape-font-specification:'Montserrat, Medium';letter-spacing:0px;white-space:pre;fill:#333333;stroke-width:0.264583" />
    <path
       d="m 198.80498,376.73521 q 2.08368,0 3.65446,0.80142 1.60283,0.80141 2.50042,2.4363 0.89758,1.63489 0.89758,4.13531 v 9.77728 h -3.07743 v -9.42466 q 0,-2.46836 -1.21816,-3.71857 -1.18609,-1.25021 -3.36595,-1.25021 -1.63489,0 -2.85304,0.64114 -1.21815,0.64113 -1.89134,1.89134 -0.64113,1.25021 -0.64113,3.10949 v 8.75147 h -3.07744 v -23.78603 h 3.07744 v 11.38011 l -0.60908,-1.21816 q 0.83347,-1.66694 2.56453,-2.59659 1.73106,-0.92964 4.03914,-0.92964 z"
       id="path2209"
       style="font-weight:500;font-size:121.159px;line-height:1;font-family:Montserrat;-inkscape-font-specification:'Montserrat, Medium';letter-spacing:0px;white-space:pre;fill:#333333;stroke-width:0.264583" />
    <path
       d="m 221.30874,394.14197 q -4.42382,0 -6.95629,-2.53247 -2.53248,-2.53248 -2.53248,-7.40509 v -12.75855 h 3.20567 v 12.63032 q 0,3.75063 1.63489,5.48169 1.66694,1.73106 4.68027,1.73106 3.04538,0 4.68027,-1.73106 1.66695,-1.73106 1.66695,-5.48169 v -12.63032 h 3.10949 v 12.75855 q 0,4.87261 -2.53248,7.40509 -2.50041,2.53247 -6.95629,2.53247 z"
       id="path2211"
       style="font-weight:500;font-size:121.159px;line-height:1;font-family:Montserrat;-inkscape-font-specification:'Montserrat, Medium';letter-spacing:0px;white-space:pre;fill:#333333;stroke-width:0.264583" />
    <path
       d="m 245.9282,394.07786 q -2.11574,0 -3.87886,-0.9617 -1.73106,-0.99376 -2.78892,-2.91716 -1.02582,-1.92339 -1.02582,-4.80849 0,-2.8851 0.99376,-4.8085 1.02581,-1.9234 2.75687,-2.8851 1.76312,-0.9617 3.94297,-0.9617 2.50042,0 4.42382,1.08993 1.9234,1.08992 3.04538,3.04538 1.12198,1.9234 1.12198,4.51999 0,2.59659 -1.12198,4.55204 -1.12198,1.95546 -3.04538,3.04538 -1.9234,1.08993 -4.42382,1.08993 z m -9.00792,6.02665 V 376.8955 h 2.94921 v 4.5841 l -0.19234,3.94296 0.32057,3.94297 v 10.73898 z m 8.75147,-8.71941 q 1.63488,0 2.91715,-0.7373 1.31432,-0.7373 2.05163,-2.08368 0.76936,-1.37844 0.76936,-3.17361 0,-1.82723 -0.76936,-3.14155 -0.73731,-1.34638 -2.05163,-2.08369 -1.28227,-0.7373 -2.91715,-0.7373 -1.60284,0 -2.91716,0.7373 -1.28226,0.73731 -2.05163,2.08369 -0.7373,1.31432 -0.7373,3.14155 0,1.79517 0.7373,3.17361 0.76937,1.34638 2.05163,2.08368 1.31432,0.7373 2.91716,0.7373 z"
       id="path2213"
       style="font-weight:500;font-size:121.159px;line-height:1;font-family:Montserrat;-inkscape-font-specification:'Montserrat, Medium';letter-spacing:0px;white-space:pre;fill:#333333;stroke-width:0.264583" />
  </g>
</svg>
